<?xml version="1.0" ?><svg id="Layer_1" style="enable-background:new 0 0 60 60;" version="1.1" viewBox="0 0 60 60" xml:space="preserve" xmlns="http://www.w3.org/2000/svg" xmlns:xlink="http://www.w3.org/1999/xlink"><path d="M44.9,13.91C42.76,8.92,36.87,5.43,30,5.43c-6.87,0-12.76,3.5-14.9,8.48C8.59,15.45,5,17.85,5,20.7c0,4,6.76,6.09,10.96,7  c4.09,3.41,9.07,5.12,14.05,5.12c4.98,0,9.95-1.71,14.05-5.12c4.19-0.91,10.95-3,10.95-7C55,17.85,51.41,15.45,44.9,13.91z M30,7.43  c6.71,0,12.34,3.66,13.54,8.65c-8.88,2.27-18.2,2.27-27.07,0C17.66,11.09,23.3,7.43,30,7.43z M20.75,28.51  c2.92,0.37,6.04,0.56,9.25,0.56c3.21,0,6.34-0.19,9.25-0.56C33.45,31.57,26.55,31.57,20.75,28.51z M43.41,25.79  c-3.95,0.84-8.59,1.28-13.41,1.28c-4.82,0-9.46-0.44-13.4-1.28C9.97,24.39,7,22.23,7,20.7c0-1.23,1.99-3.1,7.43-4.56  c-0.03,0.18-0.08,0.35-0.1,0.53c-0.07,0.5,0.24,0.96,0.73,1.1c4.89,1.34,9.92,2.01,14.95,2.01c5.03,0,10.06-0.67,14.95-2.01  c0.48-0.13,0.79-0.6,0.73-1.1c-0.02-0.18-0.07-0.35-0.1-0.53C51.01,17.6,53,19.47,53,20.7C53,22.22,50.04,24.39,43.41,25.79z"/><path d="M11.64,20c-0.18,0.18-0.29,0.44-0.29,0.7c0,0.27,0.11,0.52,0.29,0.71c0.19,0.19,0.45,0.29,0.71,0.29  c0.27,0,0.53-0.1,0.71-0.29c0.19-0.19,0.29-0.44,0.29-0.71c0-0.26-0.1-0.52-0.29-0.7C12.69,19.62,12.02,19.62,11.64,20z"/><path d="M21.89,22.52c-0.1-0.09-0.21-0.16-0.33-0.22c-0.37-0.15-0.81-0.06-1.09,0.22c-0.18,0.19-0.29,0.45-0.29,0.71  c0,0.26,0.11,0.52,0.29,0.71c0.19,0.18,0.45,0.29,0.71,0.29c0.13,0,0.26-0.03,0.38-0.08c0.12-0.05,0.23-0.12,0.33-0.21  c0.18-0.19,0.29-0.45,0.29-0.71c0-0.13-0.03-0.26-0.08-0.38C22.05,22.72,21.98,22.61,21.89,22.52z"/><path d="M39.54,22.52c-0.09-0.09-0.2-0.16-0.32-0.22c-0.25-0.1-0.52-0.1-0.77,0c-0.12,0.06-0.23,0.13-0.33,0.22  c-0.09,0.09-0.16,0.2-0.21,0.32c-0.05,0.13-0.08,0.26-0.08,0.39c0,0.13,0.03,0.26,0.08,0.38c0.05,0.12,0.12,0.23,0.21,0.33  c0.1,0.09,0.21,0.16,0.33,0.21c0.12,0.05,0.25,0.08,0.38,0.08c0.26,0,0.52-0.11,0.71-0.29c0.19-0.19,0.29-0.45,0.29-0.71  c0-0.13-0.02-0.26-0.07-0.39C39.71,22.72,39.63,22.61,39.54,22.52z"/><path d="M29.3,23.04c-0.19,0.18-0.29,0.44-0.29,0.7c0,0.13,0.02,0.26,0.07,0.38c0.05,0.13,0.13,0.24,0.22,0.33  c0.18,0.19,0.44,0.29,0.71,0.29c0.26,0,0.52-0.1,0.7-0.29c0.1-0.09,0.17-0.2,0.22-0.33c0.05-0.12,0.08-0.25,0.08-0.38  c0-0.26-0.11-0.52-0.3-0.7C30.34,22.66,29.67,22.66,29.3,23.04z"/><path d="M48.58,20.32c-0.02-0.06-0.05-0.12-0.09-0.17c-0.04-0.06-0.08-0.11-0.12-0.15c-0.05-0.05-0.1-0.09-0.15-0.13  c-0.06-0.03-0.12-0.06-0.18-0.09c-0.06-0.02-0.12-0.04-0.18-0.06c-0.33-0.06-0.68,0.04-0.91,0.28c-0.04,0.04-0.09,0.09-0.12,0.15  c-0.04,0.05-0.07,0.11-0.09,0.17c-0.03,0.06-0.05,0.12-0.06,0.19c-0.01,0.06-0.02,0.13-0.02,0.19c0,0.13,0.03,0.26,0.08,0.39  c0.05,0.12,0.12,0.23,0.21,0.32c0.19,0.19,0.45,0.29,0.71,0.29c0.07,0,0.13,0,0.2-0.02c0.06-0.01,0.12-0.03,0.18-0.05  c0.06-0.03,0.12-0.06,0.18-0.1c0.05-0.03,0.1-0.07,0.15-0.12c0.09-0.09,0.16-0.2,0.21-0.32c0.05-0.13,0.08-0.26,0.08-0.39  c0-0.06-0.01-0.13-0.02-0.19C48.63,20.44,48.61,20.38,48.58,20.32z"/><path d="M14.7,54.57c0.43,0,0.82-0.27,0.95-0.7l6-19.21c0.16-0.53-0.13-1.09-0.66-1.25c-0.53-0.16-1.09,0.13-1.25,0.66l-6,19.21  c-0.16,0.53,0.13,1.09,0.66,1.25C14.5,54.56,14.6,54.57,14.7,54.57z"/><path d="M45.3,54.57c0.1,0,0.2-0.02,0.3-0.05c0.53-0.16,0.82-0.73,0.66-1.25l-6-19.21c-0.16-0.53-0.73-0.82-1.25-0.66  c-0.53,0.16-0.82,0.73-0.66,1.25l6,19.21C44.48,54.3,44.88,54.57,45.3,54.57z"/><path d="M36.02,37.02c-0.53,0.17-0.82,0.73-0.66,1.25l2.37,7.6c0.13,0.43,0.53,0.7,0.95,0.7c0.1,0,0.2-0.02,0.3-0.05  c0.53-0.16,0.82-0.73,0.66-1.25l-2.37-7.6C37.1,37.14,36.54,36.85,36.02,37.02z"/></svg>