<?xml version="1.0" ?><svg height="60px" version="1.1" viewBox="0 0 60 60" width="60px" xmlns="http://www.w3.org/2000/svg" xmlns:sketch="http://www.bohemiancoding.com/sketch/ns" xmlns:xlink="http://www.w3.org/1999/xlink"><title/><desc/><defs/><g fill="none" fill-rule="evenodd" id="Page-1" stroke="none" stroke-width="1"><g fill="#0A0B09" id="Group"><path d="M16,11 C16,10.447 15.553,10 15,10 L5,10 C4.447,10 4,10.447 4,11 C4,13.265 6.677,16 10,16 C13.323,16 16,13.265 16,11 L16,11 Z M6.334,12 L13.666,12 C13.049,13 11.639,14 10,14 C8.361,14 6.951,13 6.334,12 L6.334,12 Z" id="Fill-68"/><path d="M34.582,15.228 C33.973,15.575 33.382,15.963 32.825,16.38 C32.383,16.711 32.292,17.338 32.623,17.779 C32.819,18.042 33.12,18.181 33.425,18.181 C33.633,18.181 33.843,18.116 34.023,17.982 C34.515,17.613 35.036,17.271 35.574,16.964 C36.054,16.69 36.221,16.079 35.946,15.6 C35.672,15.12 35.06,14.95 34.582,15.228" id="Fill-69"/><path d="M59,41.131 C58.447,41.131 58,41.578 58,42.131 L58,44.112 C58,44.665 58.447,45.112 59,45.112 C59.553,45.112 60,44.665 60,44.112 L60,42.131 C60,41.578 59.553,41.131 59,41.131" id="Fill-70"/><path d="M29.954,20.681 C29.484,20.386 28.868,20.529 28.576,20.998 C28.205,21.592 27.868,22.214 27.573,22.848 C27.341,23.349 27.559,23.943 28.06,24.176 C28.195,24.239 28.339,24.269 28.479,24.269 C28.857,24.269 29.218,24.055 29.388,23.689 C29.648,23.131 29.944,22.582 30.272,22.059 C30.565,21.59 30.422,20.974 29.954,20.681" id="Fill-71"/><path d="M59,33.208 C58.447,33.208 58,33.655 58,34.208 L58,36.188 C58,36.741 58.447,37.189 59,37.189 C59.553,37.189 60,36.741 60,36.188 L60,34.208 C60,33.655 59.553,33.208 59,33.208" id="Fill-72"/><path d="M50.738,14.859 C50.117,14.541 49.468,14.258 48.808,14.018 C48.289,13.834 47.716,14.098 47.526,14.617 C47.338,15.136 47.606,15.71 48.126,15.898 C48.706,16.108 49.278,16.358 49.824,16.639 C49.971,16.714 50.127,16.749 50.28,16.749 C50.644,16.749 50.994,16.551 51.171,16.206 C51.423,15.715 51.229,15.111 50.738,14.859" id="Fill-73"/><path d="M58.905,29.27 L59.012,29.264 C59.561,29.206 59.959,28.713 59.9,28.164 C59.827,27.474 59.709,26.776 59.548,26.091 C59.421,25.553 58.881,25.222 58.346,25.346 C57.808,25.472 57.475,26.01 57.601,26.548 C57.742,27.152 57.848,27.768 57.912,28.375 C57.967,28.889 58.4,29.27 58.905,29.27" id="Fill-74"/><path d="M59,56.977 C58.447,56.977 58,57.425 58,57.978 L58,59 C58,59.553 58.447,60 59,60 C59.553,60 60,59.553 60,59 L60,57.978 C60,57.425 59.553,56.977 59,56.977" id="Fill-75"/><path d="M55.701,18.7 C55.332,18.287 54.7,18.253 54.289,18.618 C53.877,18.986 53.84,19.618 54.207,20.03 C54.617,20.49 55.003,20.982 55.354,21.49 C55.548,21.771 55.86,21.922 56.178,21.922 C56.373,21.922 56.571,21.864 56.745,21.745 C57.199,21.432 57.313,20.809 57,20.353 C56.602,19.778 56.165,19.222 55.701,18.7" id="Fill-76"/><path d="M42.612,13.004 C41.908,13.02 41.203,13.08 40.518,13.181 C39.972,13.261 39.594,13.769 39.674,14.315 C39.747,14.812 40.174,15.17 40.662,15.17 L40.809,15.159 C41.413,15.07 42.036,15.018 42.659,15.004 C43.211,14.991 43.648,14.532 43.636,13.98 C43.623,13.428 43.146,12.972 42.612,13.004" id="Fill-77"/><path d="M59,49.055 C58.447,49.055 58,49.502 58,50.055 L58,52.035 C58,52.588 58.447,53.035 59,53.035 C59.553,53.035 60,52.588 60,52.035 L60,50.055 C60,49.502 59.553,49.055 59,49.055" id="Fill-78"/><path d="M15.852,18.092 C18.359,16.273 20,13.328 20,10 C20,4.486 15.514,0 10,0 C4.486,0 0,4.486 0,10 C0,13.746 2.074,17.014 5.131,18.726 L11.447,32.763 C12.265,34.579 12.608,37.76 12.198,39.708 L9.043,54.711 C8.674,55.933 8.925,57.295 9.714,58.357 C10.489,59.401 11.687,60 13,60 C15.484,60 17.149,58.759 17.95,56.311 L17.98,56.196 L21.196,40.118 C21.533,38.433 21.453,36.123 21.055,34.122 L21.639,34.707 C22.385,35.453 23.365,35.826 24.346,35.826 C25.326,35.826 26.307,35.453 27.053,34.707 C28.546,33.215 28.546,30.785 27.053,29.293 L15.852,18.092 L15.852,18.092 Z M2,10 C2,5.589 5.589,2 10,2 C14.411,2 18,5.589 18,10 C18,14.411 14.411,18 10,18 C5.589,18 2,14.411 2,10 L2,10 Z M25.639,33.293 C24.925,34.007 23.766,34.005 23.054,33.294 L13.897,24.106 C13.507,23.715 12.874,23.714 12.482,24.105 C12.092,24.494 12.09,25.127 12.48,25.518 L17.875,30.931 L18.575,32.665 C19.326,34.526 19.629,37.76 19.235,39.726 L16.031,55.743 C15.363,57.725 14.181,58 13,58 C12.078,58 11.552,57.477 11.319,57.165 C10.912,56.616 10.773,55.898 10.978,55.206 L14.155,40.12 C14.655,37.747 14.267,34.154 13.271,31.942 L7.782,19.744 C8.497,19.906 9.237,20 10,20 C11.447,20 12.819,19.685 14.061,19.13 L25.639,30.707 C26.352,31.42 26.352,32.58 25.639,33.293 L25.639,33.293 Z" id="Fill-79"/></g></g></svg>